G04 (created by PCBNEW-RS274X (2012-01-19 BZR 3256)-stable) date 07/08/2012 22:35:22*
G01*
G70*
G90*
%MOIN*%
G04 Gerber Fmt 3.4, Leading zero omitted, Abs format*
%FSLAX34Y34*%
G04 APERTURE LIST*
%ADD10C,0.006000*%
%ADD11C,0.015000*%
G04 APERTURE END LIST*
G54D10*
G54D11*
X31250Y-24500D02*
X31226Y-24742D01*
X31155Y-24976D01*
X31041Y-25191D01*
X30886Y-25380D01*
X30698Y-25536D01*
X30484Y-25652D01*
X30251Y-25724D01*
X30008Y-25749D01*
X29766Y-25727D01*
X29532Y-25658D01*
X29316Y-25545D01*
X29126Y-25393D01*
X28969Y-25206D01*
X28852Y-24992D01*
X28778Y-24759D01*
X28751Y-24517D01*
X28771Y-24275D01*
X28838Y-24040D01*
X28950Y-23823D01*
X29101Y-23632D01*
X29287Y-23474D01*
X29500Y-23355D01*
X29732Y-23280D01*
X29974Y-23251D01*
X30217Y-23269D01*
X30452Y-23335D01*
X30669Y-23445D01*
X30862Y-23595D01*
X31021Y-23780D01*
X31141Y-23992D01*
X31218Y-24224D01*
X31249Y-24466D01*
X31250Y-24500D01*
X27500Y-24500D02*
X32500Y-24500D01*
X30000Y-22000D02*
X30000Y-27000D01*
X30000Y-15000D02*
X40000Y-15000D01*
X40000Y-15000D02*
X41000Y-15000D01*
X41000Y-15000D02*
X41000Y-24500D01*
X41000Y-24500D02*
X40000Y-24500D01*
X30000Y-24500D02*
X30000Y-15000D01*
X40000Y-24500D02*
X30000Y-24500D01*
M02*
