G04 (created by PCBNEW-RS274X (2012-01-19 BZR 3256)-stable) date 07/08/2012 22:35:22*
G01*
G70*
G90*
%MOIN*%
G04 Gerber Fmt 3.4, Leading zero omitted, Abs format*
%FSLAX34Y34*%
G04 APERTURE LIST*
%ADD10C,0.006000*%
%ADD11C,0.015000*%
%ADD12C,0.012000*%
G04 APERTURE END LIST*
G54D10*
G54D11*
X31250Y-24500D02*
X31226Y-24742D01*
X31155Y-24976D01*
X31041Y-25191D01*
X30886Y-25380D01*
X30698Y-25536D01*
X30484Y-25652D01*
X30251Y-25724D01*
X30008Y-25749D01*
X29766Y-25727D01*
X29532Y-25658D01*
X29316Y-25545D01*
X29126Y-25393D01*
X28969Y-25206D01*
X28852Y-24992D01*
X28778Y-24759D01*
X28751Y-24517D01*
X28771Y-24275D01*
X28838Y-24040D01*
X28950Y-23823D01*
X29101Y-23632D01*
X29287Y-23474D01*
X29500Y-23355D01*
X29732Y-23280D01*
X29974Y-23251D01*
X30217Y-23269D01*
X30452Y-23335D01*
X30669Y-23445D01*
X30862Y-23595D01*
X31021Y-23780D01*
X31141Y-23992D01*
X31218Y-24224D01*
X31249Y-24466D01*
X31250Y-24500D01*
X27500Y-24500D02*
X32500Y-24500D01*
X30000Y-22000D02*
X30000Y-27000D01*
X30000Y-15000D02*
X40000Y-15000D01*
X40000Y-15000D02*
X41000Y-15000D01*
X41000Y-15000D02*
X41000Y-24500D01*
G54D12*
X31043Y-19924D02*
X31043Y-19124D01*
X31386Y-19924D01*
X31386Y-19124D01*
X31758Y-19924D02*
X31700Y-19886D01*
X31672Y-19848D01*
X31643Y-19771D01*
X31643Y-19543D01*
X31672Y-19467D01*
X31700Y-19429D01*
X31758Y-19390D01*
X31843Y-19390D01*
X31900Y-19429D01*
X31929Y-19467D01*
X31958Y-19543D01*
X31958Y-19771D01*
X31929Y-19848D01*
X31900Y-19886D01*
X31843Y-19924D01*
X31758Y-19924D01*
X32215Y-19390D02*
X32215Y-20190D01*
X32215Y-19429D02*
X32272Y-19390D01*
X32386Y-19390D01*
X32443Y-19429D01*
X32472Y-19467D01*
X32501Y-19543D01*
X32501Y-19771D01*
X32472Y-19848D01*
X32443Y-19886D01*
X32386Y-19924D01*
X32272Y-19924D01*
X32215Y-19886D01*
X32958Y-19505D02*
X33044Y-19543D01*
X33072Y-19581D01*
X33101Y-19657D01*
X33101Y-19771D01*
X33072Y-19848D01*
X33044Y-19886D01*
X32986Y-19924D01*
X32758Y-19924D01*
X32758Y-19124D01*
X32958Y-19124D01*
X33015Y-19162D01*
X33044Y-19200D01*
X33072Y-19276D01*
X33072Y-19352D01*
X33044Y-19429D01*
X33015Y-19467D01*
X32958Y-19505D01*
X32758Y-19505D01*
X33444Y-19924D02*
X33386Y-19886D01*
X33358Y-19848D01*
X33329Y-19771D01*
X33329Y-19543D01*
X33358Y-19467D01*
X33386Y-19429D01*
X33444Y-19390D01*
X33529Y-19390D01*
X33586Y-19429D01*
X33615Y-19467D01*
X33644Y-19543D01*
X33644Y-19771D01*
X33615Y-19848D01*
X33586Y-19886D01*
X33529Y-19924D01*
X33444Y-19924D01*
X33815Y-19390D02*
X34044Y-19390D01*
X33901Y-19124D02*
X33901Y-19810D01*
X33929Y-19886D01*
X33987Y-19924D01*
X34044Y-19924D01*
X34215Y-19886D02*
X34301Y-19924D01*
X34444Y-19924D01*
X34501Y-19886D01*
X34530Y-19848D01*
X34558Y-19771D01*
X34558Y-19695D01*
X34530Y-19619D01*
X34501Y-19581D01*
X34444Y-19543D01*
X34330Y-19505D01*
X34272Y-19467D01*
X34244Y-19429D01*
X34215Y-19352D01*
X34215Y-19276D01*
X34244Y-19200D01*
X34272Y-19162D01*
X34330Y-19124D01*
X34472Y-19124D01*
X34558Y-19162D01*
X34815Y-19924D02*
X34815Y-19124D01*
X35072Y-19924D02*
X35072Y-19505D01*
X35043Y-19429D01*
X34986Y-19390D01*
X34901Y-19390D01*
X34843Y-19429D01*
X34815Y-19467D01*
X35444Y-19924D02*
X35386Y-19886D01*
X35358Y-19848D01*
X35329Y-19771D01*
X35329Y-19543D01*
X35358Y-19467D01*
X35386Y-19429D01*
X35444Y-19390D01*
X35529Y-19390D01*
X35586Y-19429D01*
X35615Y-19467D01*
X35644Y-19543D01*
X35644Y-19771D01*
X35615Y-19848D01*
X35586Y-19886D01*
X35529Y-19924D01*
X35444Y-19924D01*
X35901Y-19390D02*
X35901Y-20190D01*
X35901Y-19429D02*
X35958Y-19390D01*
X36072Y-19390D01*
X36129Y-19429D01*
X36158Y-19467D01*
X36187Y-19543D01*
X36187Y-19771D01*
X36158Y-19848D01*
X36129Y-19886D01*
X36072Y-19924D01*
X35958Y-19924D01*
X35901Y-19886D01*
G54D11*
X41000Y-24500D02*
X40000Y-24500D01*
G54D12*
X36086Y-22715D02*
X35886Y-22715D01*
X35886Y-23086D02*
X35886Y-22377D01*
X36172Y-22377D01*
X35772Y-23928D02*
X36229Y-23928D01*
X36000Y-24198D02*
X36000Y-23658D01*
X35086Y-22715D02*
X34886Y-22715D01*
X34886Y-23086D02*
X34886Y-22377D01*
X35172Y-22377D01*
X34772Y-23928D02*
X35229Y-23928D01*
X33800Y-23086D02*
X33800Y-22377D01*
X34000Y-22884D01*
X34200Y-22377D01*
X34200Y-23086D01*
X34186Y-24198D02*
X33986Y-23861D01*
X33843Y-24198D02*
X33843Y-23489D01*
X34071Y-23489D01*
X34129Y-23523D01*
X34157Y-23557D01*
X34186Y-23625D01*
X34186Y-23726D01*
X34157Y-23793D01*
X34129Y-23827D01*
X34071Y-23861D01*
X33843Y-23861D01*
X32800Y-23086D02*
X32800Y-22377D01*
X33000Y-22884D01*
X33200Y-22377D01*
X33200Y-23086D01*
X33043Y-23827D02*
X33129Y-23861D01*
X33157Y-23895D01*
X33186Y-23962D01*
X33186Y-24063D01*
X33157Y-24131D01*
X33129Y-24165D01*
X33071Y-24198D01*
X32843Y-24198D01*
X32843Y-23489D01*
X33043Y-23489D01*
X33100Y-23523D01*
X33129Y-23557D01*
X33157Y-23625D01*
X33157Y-23692D01*
X33129Y-23760D01*
X33100Y-23793D01*
X33043Y-23827D01*
X32843Y-23827D01*
X31800Y-23086D02*
X31800Y-22377D01*
X32000Y-22884D01*
X32200Y-22377D01*
X32200Y-23086D01*
X32157Y-23523D02*
X32100Y-23489D01*
X32014Y-23489D01*
X31929Y-23523D01*
X31871Y-23591D01*
X31843Y-23658D01*
X31814Y-23793D01*
X31814Y-23895D01*
X31843Y-24030D01*
X31871Y-24097D01*
X31929Y-24165D01*
X32014Y-24198D01*
X32071Y-24198D01*
X32157Y-24165D01*
X32186Y-24131D01*
X32186Y-23895D01*
X32071Y-23895D01*
X30800Y-23086D02*
X30800Y-22377D01*
X31000Y-22884D01*
X31200Y-22377D01*
X31200Y-23086D01*
X30843Y-24198D02*
X30843Y-23489D01*
X31186Y-24198D02*
X30929Y-23793D01*
X31186Y-23489D02*
X30843Y-23895D01*
X35829Y-16324D02*
X35829Y-15524D01*
X35829Y-15905D02*
X36172Y-15905D01*
X36172Y-16324D02*
X36172Y-15524D01*
X34829Y-16324D02*
X34829Y-15524D01*
X34829Y-15905D02*
X35172Y-15905D01*
X35172Y-16324D02*
X35172Y-15524D01*
X33843Y-16324D02*
X33843Y-15524D01*
X34071Y-15524D01*
X34129Y-15562D01*
X34157Y-15600D01*
X34186Y-15676D01*
X34186Y-15790D01*
X34157Y-15867D01*
X34129Y-15905D01*
X34071Y-15943D01*
X33843Y-15943D01*
X32843Y-16324D02*
X32843Y-15524D01*
X33071Y-15524D01*
X33129Y-15562D01*
X33157Y-15600D01*
X33186Y-15676D01*
X33186Y-15790D01*
X33157Y-15867D01*
X33129Y-15905D01*
X33071Y-15943D01*
X32843Y-15943D01*
X31829Y-15524D02*
X32172Y-15524D01*
X32001Y-16324D02*
X32001Y-15524D01*
X30829Y-15524D02*
X31172Y-15524D01*
X31001Y-16324D02*
X31001Y-15524D01*
G54D11*
X30000Y-24500D02*
X30000Y-15000D01*
X40000Y-24500D02*
X30000Y-24500D01*
G54D12*
X36500Y-20500D02*
X36500Y-21500D01*
X36500Y-21500D02*
X30500Y-21500D01*
X30500Y-21500D02*
X30500Y-20500D01*
X30500Y-20500D02*
X36500Y-20500D01*
X35500Y-20500D02*
X35500Y-21500D01*
X30500Y-18500D02*
X30500Y-17500D01*
X30500Y-17500D02*
X36500Y-17500D01*
X36500Y-17500D02*
X36500Y-18500D01*
X36500Y-18500D02*
X30500Y-18500D01*
X31500Y-18500D02*
X31500Y-17500D01*
M02*
