G04 (created by PCBNEW-RS274X (2012-01-19 BZR 3256)-stable) date 07/08/2012 22:35:22*
G01*
G70*
G90*
%MOIN*%
G04 Gerber Fmt 3.4, Leading zero omitted, Abs format*
%FSLAX34Y34*%
G04 APERTURE LIST*
%ADD10C,0.006000*%
%ADD11C,0.015000*%
%ADD12C,0.012000*%
%ADD13R,0.060000X0.060000*%
%ADD14C,0.060000*%
%ADD15R,0.055000X0.055000*%
%ADD16C,0.055000*%
%ADD17C,0.050000*%
%ADD18C,0.025000*%
%ADD19C,0.019700*%
G04 APERTURE END LIST*
G54D10*
G54D11*
X31250Y-24500D02*
X31226Y-24742D01*
X31155Y-24976D01*
X31041Y-25191D01*
X30886Y-25380D01*
X30698Y-25536D01*
X30484Y-25652D01*
X30251Y-25724D01*
X30008Y-25749D01*
X29766Y-25727D01*
X29532Y-25658D01*
X29316Y-25545D01*
X29126Y-25393D01*
X28969Y-25206D01*
X28852Y-24992D01*
X28778Y-24759D01*
X28751Y-24517D01*
X28771Y-24275D01*
X28838Y-24040D01*
X28950Y-23823D01*
X29101Y-23632D01*
X29287Y-23474D01*
X29500Y-23355D01*
X29732Y-23280D01*
X29974Y-23251D01*
X30217Y-23269D01*
X30452Y-23335D01*
X30669Y-23445D01*
X30862Y-23595D01*
X31021Y-23780D01*
X31141Y-23992D01*
X31218Y-24224D01*
X31249Y-24466D01*
X31250Y-24500D01*
X27500Y-24500D02*
X32500Y-24500D01*
X30000Y-22000D02*
X30000Y-27000D01*
X30000Y-15000D02*
X40000Y-15000D01*
X40000Y-15000D02*
X41000Y-15000D01*
X41000Y-15000D02*
X41000Y-24500D01*
X41000Y-24500D02*
X40000Y-24500D01*
G54D12*
X34371Y-19314D02*
X34429Y-19276D01*
X34543Y-19276D01*
X34600Y-19314D01*
X34657Y-19390D01*
X34686Y-19467D01*
X34686Y-19619D01*
X34657Y-19695D01*
X34600Y-19771D01*
X34543Y-19810D01*
X34429Y-19810D01*
X34371Y-19771D01*
X34486Y-19010D02*
X34629Y-19048D01*
X34771Y-19162D01*
X34857Y-19352D01*
X34886Y-19543D01*
X34857Y-19733D01*
X34771Y-19924D01*
X34629Y-20038D01*
X34486Y-20076D01*
X34343Y-20038D01*
X34200Y-19924D01*
X34114Y-19733D01*
X34086Y-19543D01*
X34114Y-19352D01*
X34200Y-19162D01*
X34343Y-19048D01*
X34486Y-19010D01*
X33828Y-19390D02*
X33828Y-19924D01*
X33828Y-19467D02*
X33800Y-19429D01*
X33742Y-19390D01*
X33657Y-19390D01*
X33600Y-19429D01*
X33571Y-19505D01*
X33571Y-19924D01*
X33199Y-19924D02*
X33257Y-19886D01*
X33285Y-19848D01*
X33314Y-19771D01*
X33314Y-19543D01*
X33285Y-19467D01*
X33257Y-19429D01*
X33199Y-19390D01*
X33114Y-19390D01*
X33057Y-19429D01*
X33028Y-19467D01*
X32999Y-19543D01*
X32999Y-19771D01*
X33028Y-19848D01*
X33057Y-19886D01*
X33114Y-19924D01*
X33199Y-19924D01*
X32742Y-19390D02*
X32742Y-20190D01*
X32742Y-19429D02*
X32685Y-19390D01*
X32571Y-19390D01*
X32514Y-19429D01*
X32485Y-19467D01*
X32456Y-19543D01*
X32456Y-19771D01*
X32485Y-19848D01*
X32514Y-19886D01*
X32571Y-19924D01*
X32685Y-19924D01*
X32742Y-19886D01*
X32199Y-19924D02*
X32199Y-19124D01*
X31942Y-19924D02*
X31942Y-19505D01*
X31971Y-19429D01*
X32028Y-19390D01*
X32113Y-19390D01*
X32171Y-19429D01*
X32199Y-19467D01*
X31428Y-19886D02*
X31485Y-19924D01*
X31599Y-19924D01*
X31656Y-19886D01*
X31685Y-19810D01*
X31685Y-19505D01*
X31656Y-19429D01*
X31599Y-19390D01*
X31485Y-19390D01*
X31428Y-19429D01*
X31399Y-19505D01*
X31399Y-19581D01*
X31685Y-19657D01*
X30885Y-19924D02*
X30885Y-19505D01*
X30914Y-19429D01*
X30971Y-19390D01*
X31085Y-19390D01*
X31142Y-19429D01*
X30885Y-19886D02*
X30942Y-19924D01*
X31085Y-19924D01*
X31142Y-19886D01*
X31171Y-19810D01*
X31171Y-19733D01*
X31142Y-19657D01*
X31085Y-19619D01*
X30942Y-19619D01*
X30885Y-19581D01*
X30342Y-19924D02*
X30342Y-19124D01*
X30342Y-19886D02*
X30399Y-19924D01*
X30513Y-19924D01*
X30571Y-19886D01*
X30599Y-19848D01*
X30628Y-19771D01*
X30628Y-19543D01*
X30599Y-19467D01*
X30571Y-19429D01*
X30513Y-19390D01*
X30399Y-19390D01*
X30342Y-19429D01*
G54D11*
X30000Y-24500D02*
X30000Y-15000D01*
X40000Y-24500D02*
X30000Y-24500D01*
G54D13*
X40000Y-16000D03*
G54D14*
X40000Y-17050D03*
X40000Y-18150D03*
X40000Y-19200D03*
X40000Y-20300D03*
X40000Y-21400D03*
X40000Y-22450D03*
X40000Y-23550D03*
X38900Y-16500D03*
X38900Y-17600D03*
X38900Y-18700D03*
X38900Y-19750D03*
X38900Y-20850D03*
X38900Y-21900D03*
X38900Y-23000D03*
G54D15*
X36000Y-21000D03*
G54D16*
X35000Y-21000D03*
X34000Y-21000D03*
X33000Y-21000D03*
X32000Y-21000D03*
X31000Y-21000D03*
G54D15*
X31000Y-18000D03*
G54D16*
X32000Y-18000D03*
X33000Y-18000D03*
X34000Y-18000D03*
X35000Y-18000D03*
X36000Y-18000D03*
G54D17*
X40000Y-18150D02*
X39000Y-18150D01*
X38300Y-18150D02*
X37900Y-18150D01*
X37500Y-18150D02*
X38300Y-18150D01*
X39000Y-18150D02*
X37900Y-18150D01*
X38900Y-18150D02*
X40000Y-18150D01*
X35000Y-18000D02*
X35000Y-18600D01*
X35000Y-18600D02*
X36000Y-19600D01*
X36000Y-19600D02*
X36000Y-21000D01*
X38900Y-17600D02*
X38900Y-18700D01*
X38900Y-17600D02*
X38900Y-18150D01*
X36750Y-17250D02*
X37500Y-18150D01*
X35000Y-18000D02*
X35000Y-17500D01*
X35000Y-17500D02*
X35250Y-17250D01*
X35250Y-17250D02*
X36750Y-17250D01*
G54D18*
X35800Y-21750D02*
X35750Y-21750D01*
X37800Y-20850D02*
X38900Y-20850D01*
X37800Y-20850D02*
X37150Y-20850D01*
X35750Y-21750D02*
X35000Y-21000D01*
X36250Y-21750D02*
X35800Y-21750D01*
X37900Y-20850D02*
X37800Y-20850D01*
X37150Y-20850D02*
X36500Y-21500D01*
X36500Y-21500D02*
X36250Y-21750D01*
G54D17*
X37700Y-16200D02*
X38600Y-16200D01*
X38600Y-16200D02*
X38900Y-16500D01*
X33000Y-18000D02*
X33000Y-17600D01*
X33000Y-17600D02*
X34400Y-16200D01*
X33000Y-18000D02*
X32000Y-18000D01*
X34400Y-16200D02*
X37700Y-16200D01*
X39450Y-19750D02*
X40000Y-20300D01*
X39450Y-19750D02*
X40000Y-19200D01*
X38900Y-19750D02*
X39450Y-19750D01*
X38900Y-19750D02*
X38450Y-19750D01*
X36000Y-18000D02*
X37750Y-19750D01*
X37900Y-19750D02*
X38450Y-19750D01*
X37750Y-19750D02*
X37900Y-19750D01*
X36000Y-18000D02*
X36000Y-18000D01*
G54D18*
X37500Y-23400D02*
X38500Y-23400D01*
X38500Y-23400D02*
X38900Y-23000D01*
X33400Y-23400D02*
X31000Y-21000D01*
X37500Y-23400D02*
X33400Y-23400D01*
X37900Y-21900D02*
X37900Y-21900D01*
X38900Y-21900D02*
X37900Y-21900D01*
X37200Y-22600D02*
X34600Y-22600D01*
X37900Y-21900D02*
X37200Y-22600D01*
X34600Y-22600D02*
X33000Y-21000D01*
X40000Y-22450D02*
X39000Y-22450D01*
X37800Y-23000D02*
X34000Y-23000D01*
X34000Y-23000D02*
X32000Y-21000D01*
X39000Y-22450D02*
X38350Y-22450D01*
X38350Y-22450D02*
X37800Y-23000D01*
X37400Y-21400D02*
X38200Y-21400D01*
X36600Y-22200D02*
X37400Y-21400D01*
G54D19*
X34000Y-21000D02*
X34000Y-21000D01*
G54D18*
X35200Y-22200D02*
X36600Y-22200D01*
X34000Y-21000D02*
X35200Y-22200D01*
G54D19*
X40000Y-21400D02*
X38200Y-21400D01*
G54D18*
X40000Y-17050D02*
X39000Y-17050D01*
X37550Y-17050D02*
X39000Y-17050D01*
X37250Y-16750D02*
X37550Y-17050D01*
X34000Y-17500D02*
X34750Y-16750D01*
X34750Y-16750D02*
X37250Y-16750D01*
X34000Y-17500D02*
X34000Y-18000D01*
X40000Y-16000D02*
X39800Y-16000D01*
X39800Y-16000D02*
X39400Y-15600D01*
X39400Y-15600D02*
X38600Y-15600D01*
X31000Y-18000D02*
X31000Y-18000D01*
X31000Y-18000D02*
X33400Y-15600D01*
X33400Y-15600D02*
X38600Y-15600D01*
M02*
