M48
;DRILL file {Pcbnew (2012-01-19 BZR 3256)-stable} date 30/10/2012 21:04:49
;FORMAT={-:-/ absolute / metric / decimal}
FMAT,2
METRIC,TZ
T1C1.016
%
G90
G05
M71
T1
X73.660Y-53.340
X74.930Y-45.720
X76.200Y-53.340
X77.470Y-45.720
X78.740Y-53.340
X81.280Y-45.720
X81.280Y-53.340
X83.820Y-45.720
X84.455Y-53.340
X86.360Y-45.720
X86.995Y-53.340
X88.900Y-45.720
X89.535Y-53.340
X98.806Y-41.910
X98.806Y-44.704
X98.806Y-47.498
X98.806Y-50.165
X98.806Y-52.959
X98.806Y-55.626
X98.806Y-58.420
X101.600Y-40.640
X101.600Y-43.307
X101.600Y-46.101
X101.600Y-48.768
X101.600Y-51.562
X101.600Y-54.356
X101.600Y-57.023
X101.600Y-59.817
T0
M30
