G04 (created by PCBNEW-RS274X (2012-01-19 BZR 3256)-stable) date 30/10/2012 22:31:02*
G01*
G70*
G90*
%MOIN*%
G04 Gerber Fmt 3.4, Leading zero omitted, Abs format*
%FSLAX34Y34*%
G04 APERTURE LIST*
%ADD10C,0.006000*%
%ADD11C,0.009900*%
%ADD12C,0.012000*%
%ADD13C,0.015000*%
%ADD14C,0.010000*%
G04 APERTURE END LIST*
G54D10*
G54D11*
X37839Y-23965D02*
X37248Y-23965D01*
X37839Y-23796D02*
X37529Y-23796D01*
X37473Y-23815D01*
X37445Y-23853D01*
X37445Y-23909D01*
X37473Y-23946D01*
X37501Y-23965D01*
X37445Y-23647D02*
X37839Y-23553D01*
X37445Y-23459D02*
X37839Y-23553D01*
X37979Y-23590D01*
X38008Y-23609D01*
X38036Y-23647D01*
X37839Y-23140D02*
X37248Y-23140D01*
X37811Y-23140D02*
X37839Y-23178D01*
X37839Y-23253D01*
X37811Y-23290D01*
X37782Y-23309D01*
X37726Y-23328D01*
X37557Y-23328D01*
X37501Y-23309D01*
X37473Y-23290D01*
X37445Y-23253D01*
X37445Y-23178D01*
X37473Y-23140D01*
X37839Y-22953D02*
X37445Y-22953D01*
X37557Y-22953D02*
X37501Y-22934D01*
X37473Y-22916D01*
X37445Y-22878D01*
X37445Y-22841D01*
X37839Y-22540D02*
X37529Y-22540D01*
X37473Y-22559D01*
X37445Y-22597D01*
X37445Y-22672D01*
X37473Y-22709D01*
X37811Y-22540D02*
X37839Y-22578D01*
X37839Y-22672D01*
X37811Y-22709D01*
X37754Y-22728D01*
X37698Y-22728D01*
X37642Y-22709D01*
X37614Y-22672D01*
X37614Y-22578D01*
X37585Y-22540D01*
X37839Y-22353D02*
X37445Y-22353D01*
X37557Y-22353D02*
X37501Y-22334D01*
X37473Y-22316D01*
X37445Y-22278D01*
X37445Y-22241D01*
X37839Y-21940D02*
X37529Y-21940D01*
X37473Y-21959D01*
X37445Y-21997D01*
X37445Y-22072D01*
X37473Y-22109D01*
X37811Y-21940D02*
X37839Y-21978D01*
X37839Y-22072D01*
X37811Y-22109D01*
X37754Y-22128D01*
X37698Y-22128D01*
X37642Y-22109D01*
X37614Y-22072D01*
X37614Y-21978D01*
X37585Y-21940D01*
X37445Y-21753D02*
X38036Y-21753D01*
X37473Y-21753D02*
X37445Y-21716D01*
X37445Y-21641D01*
X37473Y-21603D01*
X37501Y-21584D01*
X37557Y-21566D01*
X37726Y-21566D01*
X37782Y-21584D01*
X37811Y-21603D01*
X37839Y-21641D01*
X37839Y-21716D01*
X37811Y-21753D01*
X37445Y-21453D02*
X37445Y-21303D01*
X37248Y-21397D02*
X37754Y-21397D01*
X37811Y-21378D01*
X37839Y-21341D01*
X37839Y-21303D01*
X37839Y-21116D02*
X37811Y-21153D01*
X37782Y-21172D01*
X37726Y-21191D01*
X37557Y-21191D01*
X37501Y-21172D01*
X37473Y-21153D01*
X37445Y-21116D01*
X37445Y-21060D01*
X37473Y-21022D01*
X37501Y-21003D01*
X37557Y-20985D01*
X37726Y-20985D01*
X37782Y-21003D01*
X37811Y-21022D01*
X37839Y-21060D01*
X37839Y-21116D01*
X37839Y-20816D02*
X37445Y-20816D01*
X37557Y-20816D02*
X37501Y-20797D01*
X37473Y-20779D01*
X37445Y-20741D01*
X37445Y-20704D01*
X37782Y-20572D02*
X37811Y-20553D01*
X37839Y-20572D01*
X37811Y-20591D01*
X37782Y-20572D01*
X37839Y-20572D01*
X37839Y-20384D02*
X37248Y-20384D01*
X37473Y-20384D02*
X37445Y-20347D01*
X37445Y-20272D01*
X37473Y-20234D01*
X37501Y-20215D01*
X37557Y-20197D01*
X37726Y-20197D01*
X37782Y-20215D01*
X37811Y-20234D01*
X37839Y-20272D01*
X37839Y-20347D01*
X37811Y-20384D01*
X37839Y-19972D02*
X37811Y-20009D01*
X37754Y-20028D01*
X37248Y-20028D01*
X37839Y-19766D02*
X37811Y-19803D01*
X37782Y-19822D01*
X37726Y-19841D01*
X37557Y-19841D01*
X37501Y-19822D01*
X37473Y-19803D01*
X37445Y-19766D01*
X37445Y-19710D01*
X37473Y-19672D01*
X37501Y-19653D01*
X37557Y-19635D01*
X37726Y-19635D01*
X37782Y-19653D01*
X37811Y-19672D01*
X37839Y-19710D01*
X37839Y-19766D01*
X37445Y-19297D02*
X37923Y-19297D01*
X37979Y-19316D01*
X38008Y-19335D01*
X38036Y-19372D01*
X38036Y-19429D01*
X38008Y-19466D01*
X37811Y-19297D02*
X37839Y-19335D01*
X37839Y-19410D01*
X37811Y-19447D01*
X37782Y-19466D01*
X37726Y-19485D01*
X37557Y-19485D01*
X37501Y-19466D01*
X37473Y-19447D01*
X37445Y-19410D01*
X37445Y-19335D01*
X37473Y-19297D01*
X37811Y-19129D02*
X37839Y-19091D01*
X37839Y-19016D01*
X37811Y-18979D01*
X37754Y-18960D01*
X37726Y-18960D01*
X37670Y-18979D01*
X37642Y-19016D01*
X37642Y-19073D01*
X37614Y-19110D01*
X37557Y-19129D01*
X37529Y-19129D01*
X37473Y-19110D01*
X37445Y-19073D01*
X37445Y-19016D01*
X37473Y-18979D01*
X37445Y-18791D02*
X38036Y-18791D01*
X37473Y-18791D02*
X37445Y-18754D01*
X37445Y-18679D01*
X37473Y-18641D01*
X37501Y-18622D01*
X37557Y-18604D01*
X37726Y-18604D01*
X37782Y-18622D01*
X37811Y-18641D01*
X37839Y-18679D01*
X37839Y-18754D01*
X37811Y-18791D01*
X37839Y-18379D02*
X37811Y-18416D01*
X37782Y-18435D01*
X37726Y-18454D01*
X37557Y-18454D01*
X37501Y-18435D01*
X37473Y-18416D01*
X37445Y-18379D01*
X37445Y-18323D01*
X37473Y-18285D01*
X37501Y-18266D01*
X37557Y-18248D01*
X37726Y-18248D01*
X37782Y-18266D01*
X37811Y-18285D01*
X37839Y-18323D01*
X37839Y-18379D01*
X37445Y-18135D02*
X37445Y-17985D01*
X37248Y-18079D02*
X37754Y-18079D01*
X37811Y-18060D01*
X37839Y-18023D01*
X37839Y-17985D01*
X37782Y-17854D02*
X37811Y-17835D01*
X37839Y-17854D01*
X37811Y-17873D01*
X37782Y-17854D01*
X37839Y-17854D01*
X37811Y-17497D02*
X37839Y-17535D01*
X37839Y-17610D01*
X37811Y-17647D01*
X37782Y-17666D01*
X37726Y-17685D01*
X37557Y-17685D01*
X37501Y-17666D01*
X37473Y-17647D01*
X37445Y-17610D01*
X37445Y-17535D01*
X37473Y-17497D01*
X37839Y-17272D02*
X37811Y-17309D01*
X37782Y-17328D01*
X37726Y-17347D01*
X37557Y-17347D01*
X37501Y-17328D01*
X37473Y-17309D01*
X37445Y-17272D01*
X37445Y-17216D01*
X37473Y-17178D01*
X37501Y-17159D01*
X37557Y-17141D01*
X37726Y-17141D01*
X37782Y-17159D01*
X37811Y-17178D01*
X37839Y-17216D01*
X37839Y-17272D01*
X37839Y-16972D02*
X37445Y-16972D01*
X37501Y-16972D02*
X37473Y-16953D01*
X37445Y-16916D01*
X37445Y-16860D01*
X37473Y-16822D01*
X37529Y-16803D01*
X37839Y-16803D01*
X37529Y-16803D02*
X37473Y-16785D01*
X37445Y-16747D01*
X37445Y-16691D01*
X37473Y-16653D01*
X37529Y-16634D01*
X37839Y-16634D01*
G54D12*
X36214Y-23514D02*
X36176Y-23572D01*
X36176Y-23686D01*
X36214Y-23743D01*
X36290Y-23800D01*
X36367Y-23829D01*
X36519Y-23829D01*
X36595Y-23800D01*
X36671Y-23743D01*
X36710Y-23686D01*
X36710Y-23572D01*
X36671Y-23514D01*
X35910Y-23629D02*
X35948Y-23772D01*
X36062Y-23914D01*
X36252Y-24000D01*
X36443Y-24029D01*
X36633Y-24000D01*
X36824Y-23914D01*
X36938Y-23772D01*
X36976Y-23629D01*
X36938Y-23486D01*
X36824Y-23343D01*
X36633Y-23257D01*
X36443Y-23229D01*
X36252Y-23257D01*
X36062Y-23343D01*
X35948Y-23486D01*
X35910Y-23629D01*
X36824Y-22971D02*
X36024Y-22971D01*
X36824Y-22628D01*
X36024Y-22628D01*
X36824Y-22256D02*
X36786Y-22314D01*
X36748Y-22342D01*
X36671Y-22371D01*
X36443Y-22371D01*
X36367Y-22342D01*
X36329Y-22314D01*
X36290Y-22256D01*
X36290Y-22171D01*
X36329Y-22114D01*
X36367Y-22085D01*
X36443Y-22056D01*
X36671Y-22056D01*
X36748Y-22085D01*
X36786Y-22114D01*
X36824Y-22171D01*
X36824Y-22256D01*
X36290Y-21799D02*
X37090Y-21799D01*
X36329Y-21799D02*
X36290Y-21742D01*
X36290Y-21628D01*
X36329Y-21571D01*
X36367Y-21542D01*
X36443Y-21513D01*
X36671Y-21513D01*
X36748Y-21542D01*
X36786Y-21571D01*
X36824Y-21628D01*
X36824Y-21742D01*
X36786Y-21799D01*
X36824Y-21256D02*
X36024Y-21256D01*
X36824Y-20999D02*
X36405Y-20999D01*
X36329Y-21028D01*
X36290Y-21085D01*
X36290Y-21170D01*
X36329Y-21228D01*
X36367Y-21256D01*
X36786Y-20485D02*
X36824Y-20542D01*
X36824Y-20656D01*
X36786Y-20713D01*
X36710Y-20742D01*
X36405Y-20742D01*
X36329Y-20713D01*
X36290Y-20656D01*
X36290Y-20542D01*
X36329Y-20485D01*
X36405Y-20456D01*
X36481Y-20456D01*
X36557Y-20742D01*
X36824Y-19942D02*
X36405Y-19942D01*
X36329Y-19971D01*
X36290Y-20028D01*
X36290Y-20142D01*
X36329Y-20199D01*
X36786Y-19942D02*
X36824Y-19999D01*
X36824Y-20142D01*
X36786Y-20199D01*
X36710Y-20228D01*
X36633Y-20228D01*
X36557Y-20199D01*
X36519Y-20142D01*
X36519Y-19999D01*
X36481Y-19942D01*
X36824Y-19399D02*
X36024Y-19399D01*
X36786Y-19399D02*
X36824Y-19456D01*
X36824Y-19570D01*
X36786Y-19628D01*
X36748Y-19656D01*
X36671Y-19685D01*
X36443Y-19685D01*
X36367Y-19656D01*
X36329Y-19628D01*
X36290Y-19570D01*
X36290Y-19456D01*
X36329Y-19399D01*
X31987Y-12485D02*
X32358Y-12485D01*
X32158Y-12790D01*
X32244Y-12790D01*
X32301Y-12828D01*
X32330Y-12866D01*
X32358Y-12942D01*
X32358Y-13132D01*
X32330Y-13209D01*
X32301Y-13247D01*
X32244Y-13285D01*
X32072Y-13285D01*
X32015Y-13247D01*
X31987Y-13209D01*
X32558Y-12485D02*
X32929Y-12485D01*
X32729Y-12790D01*
X32815Y-12790D01*
X32872Y-12828D01*
X32901Y-12866D01*
X32929Y-12942D01*
X32929Y-13132D01*
X32901Y-13209D01*
X32872Y-13247D01*
X32815Y-13285D01*
X32643Y-13285D01*
X32586Y-13247D01*
X32558Y-13209D01*
X33186Y-13209D02*
X33214Y-13247D01*
X33186Y-13285D01*
X33157Y-13247D01*
X33186Y-13209D01*
X33186Y-13285D01*
X33586Y-12485D02*
X33643Y-12485D01*
X33700Y-12523D01*
X33729Y-12561D01*
X33758Y-12637D01*
X33786Y-12790D01*
X33786Y-12980D01*
X33758Y-13132D01*
X33729Y-13209D01*
X33700Y-13247D01*
X33643Y-13285D01*
X33586Y-13285D01*
X33529Y-13247D01*
X33500Y-13209D01*
X33472Y-13132D01*
X33443Y-12980D01*
X33443Y-12790D01*
X33472Y-12637D01*
X33500Y-12561D01*
X33529Y-12523D01*
X33586Y-12485D01*
X34014Y-12561D02*
X34043Y-12523D01*
X34100Y-12485D01*
X34243Y-12485D01*
X34300Y-12523D01*
X34329Y-12561D01*
X34357Y-12637D01*
X34357Y-12713D01*
X34329Y-12828D01*
X33986Y-13285D01*
X34357Y-13285D01*
X34728Y-12485D02*
X34785Y-12485D01*
X34842Y-12523D01*
X34871Y-12561D01*
X34900Y-12637D01*
X34928Y-12790D01*
X34928Y-12980D01*
X34900Y-13132D01*
X34871Y-13209D01*
X34842Y-13247D01*
X34785Y-13285D01*
X34728Y-13285D01*
X34671Y-13247D01*
X34642Y-13209D01*
X34614Y-13132D01*
X34585Y-12980D01*
X34585Y-12790D01*
X34614Y-12637D01*
X34642Y-12561D01*
X34671Y-12523D01*
X34728Y-12485D01*
X35642Y-13285D02*
X35642Y-12751D01*
X35642Y-12828D02*
X35670Y-12790D01*
X35728Y-12751D01*
X35813Y-12751D01*
X35870Y-12790D01*
X35899Y-12866D01*
X35899Y-13285D01*
X35899Y-12866D02*
X35928Y-12790D01*
X35985Y-12751D01*
X36070Y-12751D01*
X36128Y-12790D01*
X36156Y-12866D01*
X36156Y-13285D01*
X36442Y-13285D02*
X36442Y-12751D01*
X36442Y-12828D02*
X36470Y-12790D01*
X36528Y-12751D01*
X36613Y-12751D01*
X36670Y-12790D01*
X36699Y-12866D01*
X36699Y-13285D01*
X36699Y-12866D02*
X36728Y-12790D01*
X36785Y-12751D01*
X36870Y-12751D01*
X36928Y-12790D01*
X36956Y-12866D01*
X36956Y-13285D01*
X28000Y-13601D02*
X41000Y-13601D01*
X28000Y-14400D02*
X28000Y-12321D01*
X41000Y-14400D02*
X41000Y-12321D01*
X41000Y-13601D02*
X40557Y-13831D01*
X41000Y-13601D02*
X40557Y-13371D01*
X28000Y-13601D02*
X28443Y-13831D01*
X28000Y-13601D02*
X28443Y-13371D01*
G54D13*
X28000Y-24500D02*
X41000Y-24500D01*
X41000Y-15000D02*
X28000Y-15000D01*
X28000Y-24500D02*
X28000Y-15000D01*
X28000Y-15000D02*
X28000Y-24500D01*
G54D12*
X43539Y-17265D02*
X43577Y-17294D01*
X43615Y-17351D01*
X43615Y-17494D01*
X43577Y-17551D01*
X43539Y-17580D01*
X43463Y-17608D01*
X43387Y-17608D01*
X43272Y-17580D01*
X42815Y-17237D01*
X42815Y-17608D01*
X43349Y-18122D02*
X42815Y-18122D01*
X43653Y-17979D02*
X43082Y-17836D01*
X43082Y-18208D01*
X42891Y-18436D02*
X42853Y-18464D01*
X42815Y-18436D01*
X42853Y-18407D01*
X42891Y-18436D01*
X42815Y-18436D01*
X42815Y-19036D02*
X42815Y-18693D01*
X42815Y-18865D02*
X43615Y-18865D01*
X43501Y-18808D01*
X43425Y-18750D01*
X43387Y-18693D01*
X43615Y-19236D02*
X43615Y-19607D01*
X43310Y-19407D01*
X43310Y-19493D01*
X43272Y-19550D01*
X43234Y-19579D01*
X43158Y-19607D01*
X42968Y-19607D01*
X42891Y-19579D01*
X42853Y-19550D01*
X42815Y-19493D01*
X42815Y-19321D01*
X42853Y-19264D01*
X42891Y-19236D01*
X43615Y-19978D02*
X43615Y-20035D01*
X43577Y-20092D01*
X43539Y-20121D01*
X43463Y-20150D01*
X43310Y-20178D01*
X43120Y-20178D01*
X42968Y-20150D01*
X42891Y-20121D01*
X42853Y-20092D01*
X42815Y-20035D01*
X42815Y-19978D01*
X42853Y-19921D01*
X42891Y-19892D01*
X42968Y-19864D01*
X43120Y-19835D01*
X43310Y-19835D01*
X43463Y-19864D01*
X43539Y-19892D01*
X43577Y-19921D01*
X43615Y-19978D01*
X42815Y-20892D02*
X43349Y-20892D01*
X43272Y-20892D02*
X43310Y-20920D01*
X43349Y-20978D01*
X43349Y-21063D01*
X43310Y-21120D01*
X43234Y-21149D01*
X42815Y-21149D01*
X43234Y-21149D02*
X43310Y-21178D01*
X43349Y-21235D01*
X43349Y-21320D01*
X43310Y-21378D01*
X43234Y-21406D01*
X42815Y-21406D01*
X42815Y-21692D02*
X43349Y-21692D01*
X43272Y-21692D02*
X43310Y-21720D01*
X43349Y-21778D01*
X43349Y-21863D01*
X43310Y-21920D01*
X43234Y-21949D01*
X42815Y-21949D01*
X43234Y-21949D02*
X43310Y-21978D01*
X43349Y-22035D01*
X43349Y-22120D01*
X43310Y-22178D01*
X43234Y-22206D01*
X42815Y-22206D01*
X42499Y-15000D02*
X42499Y-24500D01*
X41500Y-15000D02*
X43779Y-15000D01*
X41500Y-24500D02*
X43779Y-24500D01*
X42499Y-24500D02*
X42269Y-24057D01*
X42499Y-24500D02*
X42729Y-24057D01*
X42499Y-15000D02*
X42269Y-15443D01*
X42499Y-15000D02*
X42729Y-15443D01*
G54D13*
X41000Y-15000D02*
X41000Y-24500D01*
G54D12*
X34286Y-22715D02*
X34086Y-22715D01*
X34086Y-23086D02*
X34086Y-22377D01*
X34372Y-22377D01*
X33972Y-23928D02*
X34429Y-23928D01*
X34200Y-24198D02*
X34200Y-23658D01*
X35386Y-22715D02*
X35186Y-22715D01*
X35186Y-23086D02*
X35186Y-22377D01*
X35472Y-22377D01*
X35072Y-23928D02*
X35529Y-23928D01*
X31800Y-23086D02*
X31800Y-22377D01*
X32000Y-22884D01*
X32200Y-22377D01*
X32200Y-23086D01*
X32186Y-24198D02*
X31986Y-23861D01*
X31843Y-24198D02*
X31843Y-23489D01*
X32071Y-23489D01*
X32129Y-23523D01*
X32157Y-23557D01*
X32186Y-23625D01*
X32186Y-23726D01*
X32157Y-23793D01*
X32129Y-23827D01*
X32071Y-23861D01*
X31843Y-23861D01*
X30800Y-23086D02*
X30800Y-22377D01*
X31000Y-22884D01*
X31200Y-22377D01*
X31200Y-23086D01*
X31043Y-23827D02*
X31129Y-23861D01*
X31157Y-23895D01*
X31186Y-23962D01*
X31186Y-24063D01*
X31157Y-24131D01*
X31129Y-24165D01*
X31071Y-24198D01*
X30843Y-24198D01*
X30843Y-23489D01*
X31043Y-23489D01*
X31100Y-23523D01*
X31129Y-23557D01*
X31157Y-23625D01*
X31157Y-23692D01*
X31129Y-23760D01*
X31100Y-23793D01*
X31043Y-23827D01*
X30843Y-23827D01*
X29800Y-23086D02*
X29800Y-22377D01*
X30000Y-22884D01*
X30200Y-22377D01*
X30200Y-23086D01*
X30157Y-23523D02*
X30100Y-23489D01*
X30014Y-23489D01*
X29929Y-23523D01*
X29871Y-23591D01*
X29843Y-23658D01*
X29814Y-23793D01*
X29814Y-23895D01*
X29843Y-24030D01*
X29871Y-24097D01*
X29929Y-24165D01*
X30014Y-24198D01*
X30071Y-24198D01*
X30157Y-24165D01*
X30186Y-24131D01*
X30186Y-23895D01*
X30071Y-23895D01*
X28800Y-23086D02*
X28800Y-22377D01*
X29000Y-22884D01*
X29200Y-22377D01*
X29200Y-23086D01*
X28843Y-24198D02*
X28843Y-23489D01*
X29186Y-24198D02*
X28929Y-23793D01*
X29186Y-23489D02*
X28843Y-23895D01*
X34829Y-16324D02*
X34829Y-15524D01*
X34829Y-15905D02*
X35172Y-15905D01*
X35172Y-16324D02*
X35172Y-15524D01*
X33829Y-16324D02*
X33829Y-15524D01*
X33829Y-15905D02*
X34172Y-15905D01*
X34172Y-16324D02*
X34172Y-15524D01*
X30343Y-16324D02*
X30343Y-15524D01*
X30571Y-15524D01*
X30629Y-15562D01*
X30657Y-15600D01*
X30686Y-15676D01*
X30686Y-15790D01*
X30657Y-15867D01*
X30629Y-15905D01*
X30571Y-15943D01*
X30343Y-15943D01*
X29343Y-16324D02*
X29343Y-15524D01*
X29571Y-15524D01*
X29629Y-15562D01*
X29657Y-15600D01*
X29686Y-15676D01*
X29686Y-15790D01*
X29657Y-15867D01*
X29629Y-15905D01*
X29571Y-15943D01*
X29343Y-15943D01*
X32829Y-15524D02*
X33172Y-15524D01*
X33001Y-16324D02*
X33001Y-15524D01*
X31829Y-15524D02*
X32172Y-15524D01*
X32001Y-16324D02*
X32001Y-15524D01*
G54D10*
X29000Y-18500D02*
X29000Y-17500D01*
X29000Y-17500D02*
X31000Y-17500D01*
X31000Y-17500D02*
X31000Y-18500D01*
X31000Y-18500D02*
X29000Y-18500D01*
G54D14*
X35500Y-18500D02*
X31500Y-18500D01*
X35500Y-17500D02*
X31500Y-17500D01*
X31500Y-17500D02*
X31500Y-18500D01*
X35500Y-18500D02*
X35500Y-17500D01*
G54D10*
X35750Y-20500D02*
X35750Y-21500D01*
X35750Y-21500D02*
X32750Y-21500D01*
X32750Y-21500D02*
X32750Y-20500D01*
X32750Y-20500D02*
X35750Y-20500D01*
X34750Y-21500D02*
X34750Y-20500D01*
G54D14*
X28500Y-20500D02*
X32500Y-20500D01*
X28500Y-21500D02*
X32500Y-21500D01*
X32500Y-21500D02*
X32500Y-20500D01*
X28500Y-20500D02*
X28500Y-21500D01*
M02*
